# xmcd
#
# Track frame offsets: 
#        150
#        27244
#        53839
#        82701
#        106836
#        131946
#        156177
#        176935
#        207826
#        235432
#        263567
#
# Disc length: 3756 seconds
#
# Revision: 1
# Processed by: cddbd v1.5.2PL0 Copyright (c) Steve Scherf et al.
# Submitted via: ExactAudioCopy v0.99pb5
#
DISCID=8f0eaa0b
DTITLE=Bailatino - La Resistencia
DYEAR=2008
DGENRE=Salsa
TTITLE0=La Resistencia
TTITLE1=Eres Mi Sueño
TTITLE2=Marcial Y Dolor
TTITLE3=Ella Lo Tiene Ahi
TTITLE4=El Mundo De Hoy
TTITLE5=Sentí Que Te Perdía
TTITLE6=Ayé
TTITLE7=Negra Perdóname
TTITLE8=Vivimos El Amor
TTITLE9=Le Quiero Cantar
TTITLE10=Sabor A Cuero
EXTD=YEAR: 2008
EXTT0=
EXTT1=
EXTT2=
EXTT3=
EXTT4=
EXTT5=
EXTT6=
EXTT7=
EXTT8=
EXTT9=
EXTT10=
PLAYORDER=
